<svg xmlns="http://www.w3.org/2000/svg" viewBox="0 0 1920 1080" width="1920" height="1080" role="img" aria-label="Velvet Door screenshot placeholder 3">
  <defs>
    <linearGradient id="bg3" x1="0" y1="0" x2="0" y2="1">
      <stop offset="0%" stop-color="#0A0605"/>
      <stop offset="100%" stop-color="#1A0A0E"/>
    </linearGradient>
  </defs>
  <rect width="1920" height="1080" fill="url(#bg3)"/>
  <!-- Stacked chevrons -->
  <g transform="translate(960,540)" fill="none" stroke="#C9A875">
    <g stroke-width="1.4" stroke-opacity="0.6">
      <path d="M -360 120 L 0 -120 L 360 120"/>
      <path d="M -300 180 L 0 -60 L 300 180"/>
      <path d="M -240 240 L 0 0 L 240 240"/>
    </g>
    <circle r="16" fill="#C9A875" fill-opacity="0.8" stroke="none"/>
    <circle cx="-360" cy="120" r="6" fill="#C9A875" stroke="none"/>
    <circle cx="360" cy="120" r="6" fill="#C9A875" stroke="none"/>
  </g>
  <g fill="none" stroke="#C9A875" stroke-opacity="0.5" stroke-width="1.6">
    <path d="M 60 60 h 80 M 60 60 v 80"/>
    <path d="M 1860 60 h -80 M 1860 60 v 80"/>
    <path d="M 60 1020 h 80 M 60 1020 v -80"/>
    <path d="M 1860 1020 h -80 M 1860 1020 v -80"/>
  </g>
  <text x="960" y="760" text-anchor="middle" font-family="Cinzel, Georgia, serif" font-size="56" letter-spacing="12" fill="#EDE4D0" fill-opacity="0.9">SCREENSHOT 3</text>
  <text x="960" y="820" text-anchor="middle" font-family="Fraunces, Georgia, serif" font-style="italic" font-size="28" fill="#C9A875">coming soon</text>
  <text x="960" y="980" text-anchor="middle" font-family="'JetBrains Mono', monospace" font-size="14" letter-spacing="4" fill="#EDE4D0" fill-opacity="0.45">VELVET DOOR · 1920 × 1080 PLACEHOLDER</text>
</svg>
