<svg xmlns="http://www.w3.org/2000/svg" viewBox="0 0 1920 1080" width="1920" height="1080" role="img" aria-label="Velvet Door screenshot placeholder 2">
  <defs>
    <linearGradient id="bg2" x1="0" y1="0" x2="1" y2="1">
      <stop offset="0%" stop-color="#0A0605"/>
      <stop offset="50%" stop-color="#1A0A0E"/>
      <stop offset="100%" stop-color="#251014"/>
    </linearGradient>
  </defs>
  <rect width="1920" height="1080" fill="url(#bg2)"/>
  <!-- Sunburst deco -->
  <g transform="translate(960,540)" fill="none" stroke="#C9A875">
    <g stroke-opacity="0.28">
      <line x1="-500" y1="0" x2="500" y2="0"/>
      <line x1="0" y1="-280" x2="0" y2="280"/>
      <line x1="-354" y1="-354" x2="354" y2="354"/>
      <line x1="-354" y1="354" x2="354" y2="-354"/>
      <line x1="-483" y1="-129" x2="483" y2="129"/>
      <line x1="-483" y1="129" x2="483" y2="-129"/>
      <line x1="-129" y1="-270" x2="129" y2="270"/>
      <line x1="-129" y1="270" x2="129" y2="-270"/>
    </g>
    <circle r="200" stroke-opacity="0.6" stroke-width="1.4"/>
    <circle r="160" stroke-opacity="0.4" stroke-width="0.8"/>
    <circle r="90" fill="#C9A875" fill-opacity="0.08" stroke="none"/>
  </g>
  <g fill="none" stroke="#C9A875" stroke-opacity="0.5" stroke-width="1.6">
    <path d="M 60 60 h 80 M 60 60 v 80"/>
    <path d="M 1860 60 h -80 M 1860 60 v 80"/>
    <path d="M 60 1020 h 80 M 60 1020 v -80"/>
    <path d="M 1860 1020 h -80 M 1860 1020 v -80"/>
  </g>
  <text x="960" y="540" text-anchor="middle" font-family="Cinzel, Georgia, serif" font-size="56" letter-spacing="12" fill="#EDE4D0" fill-opacity="0.9">SCREENSHOT 2</text>
  <text x="960" y="600" text-anchor="middle" font-family="Fraunces, Georgia, serif" font-style="italic" font-size="28" fill="#C9A875">coming soon</text>
  <text x="960" y="980" text-anchor="middle" font-family="'JetBrains Mono', monospace" font-size="14" letter-spacing="4" fill="#EDE4D0" fill-opacity="0.45">VELVET DOOR · 1920 × 1080 PLACEHOLDER</text>
</svg>
