<svg xmlns="http://www.w3.org/2000/svg" viewBox="0 0 1920 1080" width="1920" height="1080" role="img" aria-label="Velvet Door screenshot placeholder 4">
  <defs>
    <radialGradient id="bg4" cx="50%" cy="40%" r="70%">
      <stop offset="0%" stop-color="#2A0E12"/>
      <stop offset="100%" stop-color="#0A0605"/>
    </radialGradient>
  </defs>
  <rect width="1920" height="1080" fill="url(#bg4)"/>
  <!-- Concentric diamonds -->
  <g transform="translate(960,540)" fill="none" stroke="#C9A875">
    <path d="M 0 -300 L 300 0 L 0 300 L -300 0 Z" stroke-opacity="0.6" stroke-width="1.6"/>
    <path d="M 0 -230 L 230 0 L 0 230 L -230 0 Z" stroke-opacity="0.45" stroke-width="1.2"/>
    <path d="M 0 -160 L 160 0 L 0 160 L -160 0 Z" stroke-opacity="0.7" stroke-width="1"/>
    <path d="M 0 -80 L 80 0 L 0 80 L -80 0 Z" fill="#C9A875" fill-opacity="0.12" stroke-opacity="0.9" stroke-width="1"/>
  </g>
  <g fill="none" stroke="#C9A875" stroke-opacity="0.5" stroke-width="1.6">
    <path d="M 60 60 h 80 M 60 60 v 80"/>
    <path d="M 1860 60 h -80 M 1860 60 v 80"/>
    <path d="M 60 1020 h 80 M 60 1020 v -80"/>
    <path d="M 1860 1020 h -80 M 1860 1020 v -80"/>
  </g>
  <text x="960" y="540" text-anchor="middle" font-family="Cinzel, Georgia, serif" font-size="56" letter-spacing="12" fill="#EDE4D0" fill-opacity="0.9">SCREENSHOT 4</text>
  <text x="960" y="600" text-anchor="middle" font-family="Fraunces, Georgia, serif" font-style="italic" font-size="28" fill="#C9A875">coming soon</text>
  <text x="960" y="980" text-anchor="middle" font-family="'JetBrains Mono', monospace" font-size="14" letter-spacing="4" fill="#EDE4D0" fill-opacity="0.45">VELVET DOOR · 1920 × 1080 PLACEHOLDER</text>
</svg>
