<svg xmlns="http://www.w3.org/2000/svg" viewBox="0 0 1920 1080" width="1920" height="1080" role="img" aria-label="Velvet Door screenshot placeholder 1">
  <defs>
    <linearGradient id="bg1" x1="0" y1="0" x2="0" y2="1">
      <stop offset="0%" stop-color="#1F0B0F"/>
      <stop offset="50%" stop-color="#2A0E12"/>
      <stop offset="100%" stop-color="#0A0605"/>
    </linearGradient>
    <pattern id="stripes1" width="24" height="24" patternUnits="userSpaceOnUse" patternTransform="rotate(45)">
      <line x1="0" y1="0" x2="0" y2="24" stroke="#C9A875" stroke-opacity="0.06" stroke-width="1"/>
    </pattern>
  </defs>
  <rect width="1920" height="1080" fill="url(#bg1)"/>
  <rect width="1920" height="1080" fill="url(#stripes1)"/>
  <!-- Deco arch -->
  <g transform="translate(960,540)" fill="none" stroke="#C9A875">
    <path d="M -340 320 V -20 C -340 -200 -190 -340 0 -340 C 190 -340 340 -200 340 -20 V 320" stroke-opacity="0.55" stroke-width="2"/>
    <path d="M -300 320 V -16 C -300 -180 -170 -304 0 -304 C 170 -304 300 -180 300 -16 V 320" stroke-opacity="0.35" stroke-width="1.2"/>
    <line x1="-340" y1="320" x2="340" y2="320" stroke-opacity="0.7" stroke-width="2"/>
    <line x1="-400" y1="340" x2="400" y2="340" stroke-opacity="0.5" stroke-width="1"/>
    <circle r="4" fill="#C9A875"/>
  </g>
  <!-- Corner deco marks -->
  <g fill="none" stroke="#C9A875" stroke-opacity="0.5" stroke-width="1.6">
    <path d="M 60 60 h 80 M 60 60 v 80"/>
    <path d="M 1860 60 h -80 M 1860 60 v 80"/>
    <path d="M 60 1020 h 80 M 60 1020 v -80"/>
    <path d="M 1860 1020 h -80 M 1860 1020 v -80"/>
  </g>
  <text x="960" y="540" text-anchor="middle" font-family="Cinzel, Georgia, serif" font-size="56" letter-spacing="12" fill="#EDE4D0" fill-opacity="0.9">SCREENSHOT 1</text>
  <text x="960" y="600" text-anchor="middle" font-family="Fraunces, Georgia, serif" font-style="italic" font-size="28" fill="#C9A875">coming soon</text>
  <text x="960" y="980" text-anchor="middle" font-family="'JetBrains Mono', monospace" font-size="14" letter-spacing="4" fill="#EDE4D0" fill-opacity="0.45">VELVET DOOR · 1920 × 1080 PLACEHOLDER</text>
</svg>
