<svg xmlns="http://www.w3.org/2000/svg" viewBox="0 0 1920 1080" width="1920" height="1080" role="img" aria-label="Velvet Door screenshot placeholder 6">
  <defs>
    <linearGradient id="bg6" x1="0" y1="0" x2="0" y2="1">
      <stop offset="0%" stop-color="#2A0E12"/>
      <stop offset="60%" stop-color="#150709"/>
      <stop offset="100%" stop-color="#0A0605"/>
    </linearGradient>
  </defs>
  <rect width="1920" height="1080" fill="url(#bg6)"/>
  <!-- Double-door speakeasy deco -->
  <g transform="translate(960,540)" fill="none" stroke="#C9A875">
    <rect x="-250" y="-340" width="500" height="680" stroke-opacity="0.5" stroke-width="1.4"/>
    <rect x="-230" y="-320" width="460" height="640" stroke-opacity="0.3" stroke-width="0.9"/>
    <line x1="0" y1="-340" x2="0" y2="340" stroke-opacity="0.55" stroke-width="1.4"/>
    <circle cx="-60" cy="0" r="8" fill="#C9A875" stroke="none"/>
    <circle cx="60" cy="0" r="8" fill="#C9A875" stroke="none"/>
    <path d="M -250 -340 L -150 -260 M 250 -340 L 150 -260 M -250 340 L -150 260 M 250 340 L 150 260" stroke-opacity="0.5"/>
    <path d="M -180 -200 H -60 M 60 -200 H 180" stroke-opacity="0.4"/>
    <path d="M -180 -140 H -60 M 60 -140 H 180" stroke-opacity="0.4"/>
  </g>
  <g fill="none" stroke="#C9A875" stroke-opacity="0.5" stroke-width="1.6">
    <path d="M 60 60 h 80 M 60 60 v 80"/>
    <path d="M 1860 60 h -80 M 1860 60 v 80"/>
    <path d="M 60 1020 h 80 M 60 1020 v -80"/>
    <path d="M 1860 1020 h -80 M 1860 1020 v -80"/>
  </g>
  <text x="960" y="950" text-anchor="middle" font-family="Cinzel, Georgia, serif" font-size="44" letter-spacing="12" fill="#EDE4D0" fill-opacity="0.9">SCREENSHOT 6 · coming soon</text>
</svg>
