<svg xmlns="http://www.w3.org/2000/svg" viewBox="0 0 1920 1080" width="1920" height="1080" role="img" aria-label="Velvet Door screenshot placeholder 5">
  <defs>
    <linearGradient id="bg5" x1="0" y1="0" x2="1" y2="0">
      <stop offset="0%" stop-color="#150709"/>
      <stop offset="100%" stop-color="#0A0605"/>
    </linearGradient>
  </defs>
  <rect width="1920" height="1080" fill="url(#bg5)"/>
  <!-- Deco column fan -->
  <g transform="translate(960,840)" fill="none" stroke="#C9A875">
    <g stroke-opacity="0.6" stroke-width="1.4">
      <line x1="0" y1="0" x2="-520" y2="-600"/>
      <line x1="0" y1="0" x2="-300" y2="-660"/>
      <line x1="0" y1="0" x2="0" y2="-680"/>
      <line x1="0" y1="0" x2="300" y2="-660"/>
      <line x1="0" y1="0" x2="520" y2="-600"/>
    </g>
    <g stroke-opacity="0.35" stroke-width="1">
      <line x1="0" y1="-100" x2="-450" y2="-600"/>
      <line x1="0" y1="-100" x2="450" y2="-600"/>
    </g>
    <path d="M -560 0 H 560" stroke-opacity="0.7" stroke-width="1.6"/>
    <circle cx="0" cy="-80" r="10" fill="#C9A875" stroke="none"/>
  </g>
  <g fill="none" stroke="#C9A875" stroke-opacity="0.5" stroke-width="1.6">
    <path d="M 60 60 h 80 M 60 60 v 80"/>
    <path d="M 1860 60 h -80 M 1860 60 v 80"/>
    <path d="M 60 1020 h 80 M 60 1020 v -80"/>
    <path d="M 1860 1020 h -80 M 1860 1020 v -80"/>
  </g>
  <text x="960" y="460" text-anchor="middle" font-family="Cinzel, Georgia, serif" font-size="56" letter-spacing="12" fill="#EDE4D0" fill-opacity="0.9">SCREENSHOT 5</text>
  <text x="960" y="520" text-anchor="middle" font-family="Fraunces, Georgia, serif" font-style="italic" font-size="28" fill="#C9A875">coming soon</text>
</svg>
